<?xml version="1.0" encoding="utf-8"?>
<!-- Generator: Adobe Illustrator 16.0.0, SVG Export Plug-In . SVG Version: 6.00 Build 0)  -->
<!DOCTYPE svg PUBLIC "-//W3C//DTD SVG 1.1//EN" "http://www.w3.org/Graphics/SVG/1.1/DTD/svg11.dtd">
<svg version="1.1" id="Layer_1" xmlns="http://www.w3.org/2000/svg" xmlns:xlink="http://www.w3.org/1999/xlink" x="0px" y="0px"
	 width="82.75px" height="162.417px" viewBox="0 0 82.75 162.417" enable-background="new 0 0 82.75 162.417" xml:space="preserve">
<path fill="none" stroke="#000000" stroke-width="5" stroke-miterlimit="10" d="M75.488,106.364
	c4.066-5.349,8.128-24.748,0.246-53.453c-7.883-28.706-4.43-43.142-5.756-44.47c-1.328-1.327-11.43,3.733-28.52,3.733
	c-17.092,0-27.13-5.061-28.457-3.733c-1.328,1.328,2.156,15.764-5.725,44.47c-7.882,28.705-3.806,48.104,0.263,53.453
	c14.599,19.197,15.521,14.822,15.742,20.022c0.222,5.199-3.909,11.171-8.002,20.574c-4.094,9.403,2.304,11.504,2.304,11.504
	s5.291,1.438,23.875,1.438s23.936-1.438,23.936-1.438s6.457-2.101,2.363-11.504s-8.229-15.375-8.005-20.574
	C59.975,121.186,60.889,125.561,75.488,106.364z"/>
<path d="M53.422,127.83c-1.3,1.301-22.369,1.301-23.669,0c0,0-11.626,22.349-9.591,24.036c2.034,1.688,9.388,3.101,21.415,3.101
	c12.024,0,19.39-1.411,21.425-3.101C65.037,150.177,53.422,127.83,53.422,127.83z"/>
<path fill="none" stroke="#000000" stroke-width="5" stroke-miterlimit="10" d="M69.979,8.441c0,0-7.457-5.713-28.471-5.713
	c-21.012,0-28.506,5.713-28.506,5.713"/>
<path d="M73.18,84.085c0.037-0.108-12.522-2.031-32.826-2.031c-20.035,0-30.396,2.045-30.396,2.045S6.69,98.748,24.95,117.007
	c5.089,5.089,28.243,5.089,33.333,0C74.158,101.132,73.217,84.093,73.18,84.085z"/>
<ellipse transform="matrix(0.2615 0.9652 -0.9652 0.2615 72.506 -25.2236)" cx="52.736" cy="34.77" rx="14.094" ry="9.426"/>
<ellipse transform="matrix(0.2615 0.9652 -0.9652 0.2615 106.4001 -18.5093)" cx="65.295" cy="60.275" rx="6.321" ry="4.228"/>
</svg>
