<?xml version="1.0" encoding="utf-8"?>
<!-- Generator: Adobe Illustrator 16.0.0, SVG Export Plug-In . SVG Version: 6.00 Build 0)  -->
<!DOCTYPE svg PUBLIC "-//W3C//DTD SVG 1.1//EN" "http://www.w3.org/Graphics/SVG/1.1/DTD/svg11.dtd">
<svg version="1.1" id="Layer_1" xmlns="http://www.w3.org/2000/svg" xmlns:xlink="http://www.w3.org/1999/xlink" x="0px" y="0px"
	 width="161.969px" height="162.417px" viewBox="0 0 161.969 162.417" enable-background="new 0 0 161.969 162.417"
	 xml:space="preserve">
<circle fill="#E97B36" cx="81.209" cy="81.208" r="81.209"/>
<g>
	<path fill="none" stroke="#FFFFFF" stroke-width="3.7744" stroke-miterlimit="10" d="M106.859,100.118
		c3.069-4.038,6.136-18.682,0.186-40.35c-5.95-21.669-3.344-32.567-4.345-33.569c-1.002-1.002-8.628,2.818-21.528,2.818
		c-12.902,0-20.479-3.82-21.481-2.818c-1.003,1.002,1.628,11.9-4.321,33.569c-5.95,21.668-2.873,36.312,0.198,40.35
		c11.021,14.491,11.716,11.188,11.884,15.114c0.167,3.925-2.951,8.433-6.041,15.53c-3.09,7.099,1.739,8.685,1.739,8.685
		s3.994,1.085,18.022,1.085s18.068-1.085,18.068-1.085s4.874-1.586,1.784-8.685c-3.091-7.098-6.212-11.605-6.043-15.53
		C95.148,111.306,95.839,114.609,106.859,100.118z"/>
	<path fill="#FFFFFF" d="M90.202,116.322c-0.981,0.981-16.886,0.981-17.866,0c0,0-8.777,16.87-7.24,18.144
		c1.535,1.274,7.086,2.341,16.166,2.341c9.076,0,14.636-1.065,16.172-2.341C98.971,133.191,90.202,116.322,90.202,116.322z"/>
	<path fill="none" stroke="#FFFFFF" stroke-width="3.7744" stroke-miterlimit="10" d="M102.7,26.198c0,0-5.629-4.313-21.491-4.313
		c-15.861,0-21.519,4.313-21.519,4.313"/>
	<path fill="#FFFFFF" d="M105.117,83.3c0.027-0.082-9.453-1.533-24.779-1.533c-15.124,0-22.945,1.543-22.945,1.543
		s-2.467,11.058,11.317,24.842c3.841,3.842,21.319,3.842,25.162,0C105.855,96.168,105.145,83.306,105.117,83.3z"/>
	
		<ellipse transform="matrix(0.2615 0.9652 -0.9652 0.2615 110.7016 -52.5389)" fill="#FFFFFF" cx="89.685" cy="46.073" rx="10.639" ry="7.115"/>
	
		<ellipse transform="matrix(0.2615 0.9652 -0.9652 0.2615 136.2916 -47.4698)" fill="#FFFFFF" cx="99.166" cy="65.327" rx="4.771" ry="3.191"/>
</g>
</svg>
