<?xml version="1.0" encoding="utf-8"?>
<!-- Generator: Adobe Illustrator 21.1.0, SVG Export Plug-In . SVG Version: 6.00 Build 0)  -->
<svg version="1.1" id="Layer_1" xmlns="http://www.w3.org/2000/svg" xmlns:xlink="http://www.w3.org/1999/xlink" x="0px" y="0px"
	 viewBox="0 0 162 162.4" style="enable-background:new 0 0 162 162.4;" xml:space="preserve">
<style type="text/css">
	.st0{fill:#D74531;}
	.st1{fill:none;stroke:#FFFFFF;stroke-width:3.7744;stroke-miterlimit:10;}
	.st2{fill:#FFFFFF;}
</style>
<circle class="st0" cx="81.2" cy="81.2" r="81.2"/>
<g>
	<path class="st1" d="M106.9,100.1c3.1-4,6.1-18.7,0.2-40.3c-5.9-21.7-3.3-32.6-4.3-33.6c-1-1-8.6,2.8-21.5,2.8
		c-12.9,0-20.5-3.8-21.5-2.8c-1,1,1.6,11.9-4.3,33.6c-6,21.7-2.9,36.3,0.2,40.3c11,14.5,11.7,11.2,11.9,15.1c0.2,3.9-3,8.4-6,15.5
		c-3.1,7.1,1.7,8.7,1.7,8.7s4,1.1,18,1.1s18.1-1.1,18.1-1.1s4.9-1.6,1.8-8.7c-3.1-7.1-6.2-11.6-6-15.5
		C95.1,111.3,95.8,114.6,106.9,100.1z"/>
	<path class="st2" d="M90.2,116.3c-1,1-16.9,1-17.9,0c0,0-8.8,16.9-7.2,18.1c1.5,1.3,7.1,2.3,16.2,2.3c9.1,0,14.6-1.1,16.2-2.3
		C99,133.2,90.2,116.3,90.2,116.3z"/>
	<path class="st1" d="M102.7,26.2c0,0-5.6-4.3-21.5-4.3c-15.9,0-21.5,4.3-21.5,4.3"/>
	<path class="st2" d="M105.1,83.3c0-0.1-9.5-1.5-24.8-1.5c-15.1,0-22.9,1.5-22.9,1.5s-2.5,11.1,11.3,24.8c3.8,3.8,21.3,3.8,25.2,0
		C105.9,96.2,105.1,83.3,105.1,83.3z"/>
	<ellipse transform="matrix(0.9652 -0.2615 0.2615 0.9652 -8.9274 25.0558)" class="st2" cx="89.7" cy="46.1" rx="7.1" ry="10.6"/>
	<ellipse transform="matrix(0.9652 -0.2615 0.2615 0.9652 -13.6326 28.2062)" class="st2" cx="99.2" cy="65.3" rx="3.2" ry="4.8"/>
</g>
</svg>
